PathFileType	4	(X/Y/Z)	\\147.46.242.158\로컬 디스크 (e)\MOCAP Data\Iguana Capture\iguana\Project 2\Capture day 7\Session 2\Take06.trc
DataRate	CameraRate	NumFrames	NumMarkers	Units	OrigDataRate	OrigDataStartFrame	OrigNumFrames
120.0	120.0	17	23	mm	120.0	169	14620
Frame#	Time	ana:head1			ana:head2			ana:bone1			ana:bone2			ana:bone3			ana:tail1			ana:tail2			ana:tail3			ana:tail4			ana:Rforefoot1			ana:Rforefoot2			ana:Rforefoot3			ana:Lforefoot1			ana:Lforefoot2			ana:Lforefoot3			ana:RhindLeg1			ana:RhindLeg2			ana:RhindLeg3			ana:RhindLeg4			ana:LhindLeg1			ana:LhindLeg2			ana:LhindLeg3			ana:LhindLeg4			
		X1	Y1	Z1	X2	Y2	Z2	X3	Y3	Z3	X4	Y4	Z4	X5	Y5	Z5	X6	Y6	Z6	X7	Y7	Z7	X8	Y8	Z8	X9	Y9	Z9	X10	Y10	Z10	X11	Y11	Z11	X12	Y12	Z12	X13	Y13	Z13	X14	Y14	Z14	X15	Y15	Z15	X16	Y16	Z16	X17	Y17	Z17	X18	Y18	Z18	X19	Y19	Z19	X20	Y20	Z20	X21	Y21	Z21	X22	Y22	Z22	X23	Y23	Z23	

9631	80.250	434.95837	-116.34966	54.46756	424.68320	-119.68906	54.92924	403.83301	-123.00887	43.66206	376.81198	-124.00227	37.25536	344.77274	-132.05606	26.75384	315.23062	-141.69054	17.02904	282.14957	-130.94604	9.11870	251.19727	-98.55086	6.97702	235.95042	-61.20146	8.67437	410.51990	-134.33957	25.13166	403.49377	-145.62932	16.19514	409.83298	-136.72498	5.21510	412.68994	-109.35144	28.98154	419.55093	-99.93502	23.63811	433.85901	-95.68224	12.65013	349.81714	-140.44260	22.18120	366.17395	-149.64545	26.57984	361.14053	-163.28705	11.64678	372.85925	-162.19995	13.84880	340.55457	-123.89537	19.88446	336.72202	-106.74174	13.88969	325.68280	-121.40187	4.83175	332.52905	-111.61354	5.56859	
9632	80.258	435.16141	-116.09621	54.29635	424.90378	-119.67231	54.83060	404.07703	-122.79451	43.54007	377.06818	-123.81483	37.25515	345.01532	-131.94806	26.83580	315.47330	-141.71240	17.07313	282.41782	-131.12794	9.08889	251.42929	-98.79611	6.90680	236.14284	-61.42607	8.52497	410.72012	-134.20792	25.12587	403.57932	-145.54755	16.28304	409.94562	-136.80322	5.33337	413.10464	-109.19463	28.66942	419.92804	-99.98341	22.99905	434.03000	-95.87401	11.69389	350.20740	-140.21271	22.13816	366.75061	-149.34744	26.63297	362.62039	-163.31007	11.63282	374.31293	-161.59375	13.81707	340.79047	-123.81825	19.89129	336.76633	-106.74490	13.87505	325.68628	-121.43303	4.83511	332.56662	-111.61895	5.55966	
9633	80.267	435.41235	-115.87834	54.18153	425.16339	-119.58569	54.74306	404.35590	-122.58917	43.41626	377.34866	-123.62399	37.23178	345.26654	-131.88753	26.93246	315.78372	-141.73392	17.10527	282.69452	-131.31235	9.07913	251.65868	-99.04430	6.86142	236.37535	-61.65705	8.36020	410.93045	-134.08110	25.12525	403.65979	-145.44615	16.38478	410.08353	-136.91661	5.47562	413.50290	-109.03516	28.40939	420.18442	-99.97372	22.39860	434.10974	-95.92694	10.85764	350.60666	-139.98555	22.05732	367.33331	-149.05855	26.67579	364.07184	-163.17126	11.51187	375.71295	-160.93375	13.59790	341.04501	-123.74374	19.92240	336.81491	-106.80141	13.93592	325.69263	-121.43816	4.84584	332.59866	-111.62831	5.54902	
9634	80.275	435.70755	-115.70634	54.14360	425.45535	-119.42856	54.67865	404.65555	-122.40204	43.29942	377.63998	-123.43558	37.19157	345.52948	-131.83269	27.01608	316.09201	-141.75786	17.13441	282.97296	-131.49156	9.09205	251.88315	-99.29335	6.82864	236.63007	-61.88000	8.20031	411.15396	-133.96211	25.13058	403.76181	-145.32271	16.52018	410.15579	-137.01097	5.51925	413.79227	-108.85638	28.22413	420.33771	-99.88634	21.91217	434.04871	-95.80954	10.11252	350.99658	-139.81125	22.01187	367.92969	-148.78537	26.65067	365.46216	-162.95200	11.28968	377.04471	-160.34619	13.23083	341.33218	-123.67239	19.96380	336.85773	-106.87525	14.02316	325.70602	-121.42272	4.83927	332.62347	-111.63354	5.54225	
9635	80.283	436.00031	-115.53066	54.10647	425.73697	-119.22620	54.60469	404.95639	-122.22524	43.20258	377.94202	-123.25488	37.13891	345.81369	-131.79225	27.11446	316.39993	-141.78845	17.15894	283.25684	-131.67020	9.12955	252.10678	-99.55145	6.80498	236.90230	-62.12160	8.05253	411.39590	-133.82463	25.13547	403.89136	-145.18761	16.68335	410.20334	-137.09422	5.52938	414.02094	-108.63274	28.13021	420.50949	-99.75106	21.60503	433.94421	-95.57895	9.55285	351.38123	-139.69011	22.00530	368.53217	-148.52614	26.55803	366.81873	-162.61299	10.94945	378.36005	-159.79811	12.71539	341.61697	-123.60902	20.01543	336.89966	-106.94935	14.11019	325.68460	-121.41870	4.82312	332.61877	-111.63070	5.55094	
9636	80.292	436.33966	-115.39276	54.14969	426.01657	-119.01476	54.52930	405.29962	-122.04453	43.11900	378.25690	-123.08722	37.10374	346.11627	-131.72473	27.15807	316.70404	-141.84244	17.19390	283.55444	-131.85190	9.17436	252.33638	-99.82703	6.79540	237.16548	-62.38577	7.93726	411.65921	-133.66330	25.14803	404.05457	-145.04916	16.87391	410.17590	-137.11687	5.44833	414.16968	-108.39608	28.02242	420.68759	-99.56074	21.45511	433.92877	-95.31216	9.17510	351.79327	-139.57648	22.03471	369.13553	-148.25793	26.37332	368.12454	-162.16241	10.48177	379.61801	-159.36095	12.00921	341.91061	-123.55110	20.06981	336.93835	-107.01042	14.18088	325.62100	-121.39649	4.86261	332.60422	-111.62512	5.56511	
9637	80.300	436.71268	-115.28979	54.26303	426.30692	-118.74815	54.50539	405.63574	-121.85340	43.06848	378.57874	-122.93479	37.09900	346.41772	-131.65213	27.16685	317.07205	-141.90726	17.25740	283.88211	-132.03920	9.21289	252.58588	-100.11343	6.79014	237.44365	-62.65168	7.82188	411.94815	-133.47351	25.16243	404.23746	-144.90506	17.07006	410.06726	-137.05621	5.26425	414.27292	-108.14509	27.90470	420.89871	-99.33448	21.36115	433.97162	-95.05796	8.91352	352.22092	-139.48123	22.06388	369.73380	-148.00194	26.10641	369.34009	-161.67734	9.93173	380.71536	-158.99916	11.15039	342.19629	-123.51070	20.10842	336.98172	-107.06065	14.22549	325.51453	-121.37751	4.94443	332.58029	-111.62592	5.58054	
9638	80.308	437.12756	-115.21113	54.44828	426.61459	-118.44239	54.49536	405.98383	-121.66344	43.04061	378.90091	-122.79759	37.14006	346.73309	-131.56049	27.15154	317.42392	-141.98598	17.31698	284.23877	-132.24539	9.22803	252.84602	-100.40682	6.79234	237.72755	-62.92738	7.69994	412.24222	-133.26340	25.17401	404.43192	-144.76247	17.25113	409.93848	-136.93269	5.07660	414.40857	-107.89237	27.72831	421.13821	-99.09734	21.28202	434.13037	-94.87663	8.75447	352.67361	-139.36832	22.05758	370.30258	-147.78242	25.77502	370.45798	-161.18388	9.32667	381.77335	-158.73065	10.24185	342.46527	-123.47358	20.13539	337.02887	-107.06353	14.19580	325.33661	-121.36330	5.09762	332.56378	-111.63078	5.59325	
9639	80.317	437.55533	-115.16035	54.68156	426.96252	-118.12601	54.52726	406.35468	-121.47846	43.02245	379.22318	-122.65955	37.19618	347.06482	-131.46632	27.10619	317.81015	-142.05902	17.36707	284.60968	-132.45193	9.22386	253.10910	-100.69729	6.78704	238.01074	-63.18065	7.54207	412.54501	-133.04807	25.18389	404.59943	-144.62128	17.39613	409.85541	-136.78125	4.95490	414.58728	-107.64987	27.52313	421.37241	-98.86974	21.11998	434.33316	-94.77437	8.60417	353.11633	-139.28505	22.04550	370.83517	-147.60722	25.41866	371.37576	-160.75461	8.64871	382.65649	-158.49854	9.26324	342.71030	-123.43530	20.15199	337.08884	-107.05833	14.15105	325.13727	-121.34344	5.29950	332.54834	-111.64758	5.60219	
9640	80.325	437.90897	-115.04774	54.79468	427.32385	-117.85561	54.56428	406.73160	-121.30469	42.99022	379.54721	-122.51122	37.24184	347.40030	-131.38875	27.07221	318.15366	-142.10194	17.40145	284.97589	-132.64343	9.20716	253.36217	-100.96712	6.76872	238.28491	-63.40935	7.37033	412.84552	-132.84224	25.19584	404.75693	-144.47002	17.51127	409.85843	-136.62386	4.96214	414.83997	-107.43179	27.33057	421.58124	-98.66442	20.86944	434.48053	-94.70224	8.38123	353.52097	-139.24324	22.03168	371.31436	-147.55765	25.04379	372.05887	-160.38426	7.95430	383.39923	-158.33540	8.37154	342.96432	-123.40439	20.13658	337.16229	-107.02875	14.07364	324.95422	-121.33294	5.49097	332.55585	-111.67295	5.60199	
9641	80.333	438.18231	-114.85278	54.75173	427.66470	-117.61744	54.56035	407.08319	-121.13271	42.94851	379.87073	-122.34593	37.24977	347.74268	-131.35051	27.08615	318.49466	-142.12505	17.41870	285.31772	-132.81657	9.19416	253.59769	-101.22272	6.73341	238.51889	-63.61036	7.19353	413.13666	-132.65709	25.21119	404.90073	-144.31107	17.60180	409.92484	-136.52948	5.04300	415.08160	-107.19843	27.21551	421.71933	-98.48120	20.56805	434.50049	-94.60417	8.04300	353.89462	-139.23177	22.00486	371.73212	-147.58217	24.68018	372.47894	-160.11807	7.29112	383.94638	-158.24518	7.54598	343.21613	-123.36678	20.10687	337.25156	-107.01582	14.01505	324.83752	-121.32463	5.65625	332.66287	-111.72581	5.57054	
9642	80.342	438.36783	-114.58575	54.57883	427.96979	-117.43673	54.49495	407.41077	-120.94753	42.88441	380.19498	-122.18076	37.21650	348.07098	-131.33412	27.10454	318.86032	-142.09666	17.43692	285.62082	-132.95496	9.18814	253.81009	-101.46345	6.68664	238.69707	-63.78849	7.04862	413.41586	-132.50084	25.22630	405.04181	-144.14088	17.69186	409.97437	-136.45987	5.09160	415.31891	-106.97644	27.16912	421.76318	-98.26405	20.27108	434.41187	-94.46877	7.63211	354.24149	-139.23622	21.95212	372.09177	-147.67303	24.30695	372.71771	-159.96362	6.74578	384.30350	-158.24770	6.84768	343.49268	-123.32816	20.06715	337.35120	-106.99825	13.95725	324.83026	-121.30587	5.74479	332.76379	-111.77143	5.53896	
9643	80.350	438.49722	-114.22433	54.26599	428.23236	-117.28872	54.38044	407.68054	-120.75393	42.80404	380.50851	-122.02847	37.14098	348.38672	-131.32889	27.17023	319.23944	-142.02711	17.45924	285.88715	-133.05782	9.19907	253.99791	-101.68541	6.64065	238.83014	-63.98793	6.91991	413.69168	-132.36464	25.23266	405.19131	-143.95830	17.79355	410.01611	-136.44106	5.10917	415.55994	-106.75041	27.16235	421.76331	-98.01251	20.02355	434.24203	-94.30621	7.16999	354.55441	-139.26483	21.88532	372.39276	-147.82780	23.94841	372.80664	-159.96281	6.29395	384.48978	-158.27100	6.27086	343.78568	-123.30235	20.00730	337.45084	-106.99393	13.92144	324.85159	-121.31831	5.76409	332.85519	-111.80927	5.51750	
9644	80.358	438.64120	-113.86705	53.95823	428.47076	-117.18951	54.21049	407.94812	-120.54848	42.71124	380.80463	-121.90217	37.04653	348.69742	-131.28625	27.19551	319.61435	-141.94176	17.49376	286.12000	-133.13614	9.22107	254.16469	-101.89446	6.61611	238.91974	-64.22178	6.83150	413.95532	-132.24690	25.23344	405.35034	-143.76843	17.92831	410.05072	-136.46263	5.09833	415.82523	-106.53958	27.12530	421.70529	-97.71006	19.81584	434.09625	-94.15026	6.76034	354.89090	-139.23181	21.74325	372.64362	-148.03009	23.61164	372.82559	-160.05602	5.90791	384.56812	-158.33054	5.79298	344.09485	-123.28584	19.95920	337.57013	-107.00453	13.89628	324.88831	-121.32065	5.77589	332.90817	-111.83144	5.51180	
9645	80.367	438.81253	-113.55365	53.70565	428.70493	-117.06371	54.05846	408.17444	-120.35189	42.63698	381.08990	-121.81654	36.94697	348.97607	-131.24544	27.20759	320.04575	-141.85066	17.55558	286.33154	-133.18791	9.25917	254.31215	-102.07518	6.61284	239.00487	-64.44717	6.75893	414.22549	-132.13112	25.21737	405.50507	-143.57872	18.08556	410.09418	-136.52168	5.08496	416.11890	-106.35357	27.03180	421.59689	-97.35218	19.60036	434.02274	-94.03897	6.45441	355.21634	-139.19751	21.57414	372.86700	-148.24074	23.30967	372.81509	-160.23569	5.61867	384.48569	-158.36389	5.39388	344.41174	-123.29149	19.92525	337.70117	-107.03524	13.88929	324.94083	-121.31769	5.77755	332.90506	-111.83973	5.52077	
9646	80.375	439.04849	-113.29060	53.54554	428.93161	-116.90391	53.91990	408.38382	-120.19563	42.56535	381.36084	-121.77364	36.84071	349.24500	-131.19807	27.18937	320.42667	-141.78226	17.61894	286.53381	-133.22977	9.30429	254.45345	-102.22008	6.63839	239.10320	-64.65812	6.69029	414.48917	-132.00374	25.17426	405.64340	-143.39432	18.23525	410.15414	-136.56564	5.10376	416.41025	-106.18615	26.89809	421.48340	-96.98135	19.36863	434.03775	-93.99551	6.29652	355.50677	-139.19386	21.43099	373.06104	-148.43727	23.03572	372.78079	-160.43120	5.33250	384.38452	-158.38138	5.08822	344.69174	-123.29601	19.93854	337.85349	-107.09196	13.90284	324.97659	-121.31042	5.79017	332.86526	-111.83732	5.53951	
9647	80.383	439.32819	-113.10185	53.48356	429.17407	-116.71523	53.82902	408.58456	-120.06599	42.50630	381.63144	-121.76261	36.73119	349.49808	-131.16243	27.14493	320.73187	-141.74297	17.68586	286.72287	-133.26328	9.34899	254.58081	-102.34315	6.68283	239.20726	-64.82778	6.63565	414.75735	-131.86705	25.13237	405.76019	-143.22702	18.36930	410.23190	-136.59435	5.14603	416.65961	-106.02547	26.74976	421.38916	-96.64694	19.13319	434.10815	-94.00288	6.23247	355.74438	-139.24660	21.35717	373.23816	-148.60660	22.82980	372.70120	-160.63823	5.02787	384.29471	-158.39748	4.88002	344.92715	-123.30341	19.98953	338.02945	-107.18533	13.95588	325.00565	-121.30698	5.80628	332.80051	-111.83100	5.56849	
